<?xml version="1.0" encoding="utf-8"?>
<!-- Generator: Adobe Illustrator 22.1.0, SVG Export Plug-In . SVG Version: 6.00 Build 0)  -->
<svg version="1.1" id="Layer_1" xmlns="http://www.w3.org/2000/svg" xmlns:xlink="http://www.w3.org/1999/xlink" x="0px" y="0px"
	 viewBox="0 0 800 100" style="enable-background:new 0 0 800 100;" xml:space="preserve">
<style type="text/css">
	.st0{fill:#EEEEEE;}
</style>
<g>
	<polygon class="st0" points="783,84.3 783,73.9 767,73.9 767,84.3 755.5,84.3 755.5,72.5 739.5,72.5 739.5,74.9 724,74.9 724,84.3 
		700,84.3 700,77.9 684,77.9 684,84.3 660,84.3 660,82.7 665.7,82.7 665.7,75.5 658.5,75.5 658.5,78 644,78 644,84.3 638.5,84.3 
		638.5,72.9 622.5,72.9 622.5,84.3 592,84.3 592,70.4 576,70.4 576,76.4 569.3,76.4 569.3,84.3 563.5,84.3 563.5,75.4 547.5,75.4 
		547.5,84.3 536,84.3 536,74 520,74 520,84.3 484.5,84.3 484.5,75.9 474.4,75.9 474.4,73.4 467.3,73.4 467.3,80.6 468.5,80.6 
		468.5,84.3 457,84.3 457,79.9 441,79.9 441,84.3 438,84.3 438,73.4 422,73.4 422,84.3 418.8,84.3 418.8,79.4 411.7,79.4 
		411.7,84.3 392.5,84.3 392.5,77.9 376.5,77.9 376.5,84.3 372.5,84.3 372.5,71.9 356.5,71.9 356.5,84.3 329.5,84.3 329.5,78.9 
		313.5,78.9 313.5,84.3 297.5,84.3 297.5,71.9 281.5,71.9 281.5,80.5 270,80.5 270,70.5 254,70.5 254,84.3 218.5,84.3 218.5,72.4 
		202.5,72.4 202.5,84.3 185,84.3 185,78.9 172,78.9 172,69.9 156,69.9 156,84.3 153,84.3 153,70.9 137,70.9 137,76.4 122.5,76.4 
		122.5,84.3 122,84.3 122,79.9 106.5,79.9 106.5,68.4 90.5,68.4 90.5,84.3 90,84.3 90,72.9 74,72.9 74,77.4 62.5,77.4 62.5,71.5 
		46.5,71.5 46.5,84.3 43.5,84.3 43.5,70.4 27.5,70.4 27.5,79 16,79 16,69 0,69 0,84.3 -0.3,84.3 -0.3,100.3 801.7,100.3 801.7,84.3 
			"/>
	<rect x="12.7" y="58.3" class="st0" width="7.1" height="7.1"/>
	<rect x="332" y="71.2" class="st0" width="7.1" height="7.1"/>
	<rect x="322.5" y="60.2" class="st0" width="7.1" height="7.1"/>
	<rect x="302.7" y="69" class="st0" width="7.1" height="7.1"/>
	<rect x="402.2" y="68.4" class="st0" width="7.1" height="7.1"/>
	<rect x="382.9" y="68.7" class="st0" width="7.1" height="7.1"/>
	<rect x="511.5" y="74.9" class="st0" width="7.1" height="7.1"/>
	<rect x="502" y="63.9" class="st0" width="7.1" height="7.1"/>
	<rect x="487.5" y="75.4" class="st0" width="7.1" height="7.1"/>
	<rect x="640.1" y="62.4" class="st0" width="7.1" height="7.1"/>
	<rect x="578.9" y="59.5" class="st0" width="7.1" height="7.1"/>
	<rect x="546.4" y="63.4" class="st0" width="7.1" height="7.1"/>
	<rect x="715" y="73.5" class="st0" width="7.1" height="7.1"/>
	<rect x="705.5" y="62.5" class="st0" width="7.1" height="7.1"/>
	<rect x="606.8" y="68.4" class="st0" width="7.1" height="7.1"/>
	<rect x="593.7" y="75.4" class="st0" width="7.1" height="7.1"/>
	<rect x="673" y="64" class="st0" width="7.1" height="7.1"/>
	<rect x="785.9" y="72.9" class="st0" width="7.1" height="7.1"/>
	<rect x="776.4" y="61.9" class="st0" width="7.1" height="7.1"/>
	<rect x="412.8" y="61.6" class="st0" width="7.1" height="7.1"/>
	<rect x="347.9" y="63.4" class="st0" width="7.1" height="7.1"/>
	<rect x="464.1" y="64.8" class="st0" width="7.1" height="7.1"/>
	<rect x="517.5" y="66.2" class="st0" width="7.1" height="7.1"/>
	<rect x="746.1" y="57.4" class="st0" width="7.1" height="7.1"/>
	<rect x="220" y="73.2" class="st0" width="7.1" height="7.1"/>
	<rect x="210.5" y="62.2" class="st0" width="7.1" height="7.1"/>
	<rect x="190.7" y="71" class="st0" width="7.1" height="7.1"/>
	<rect x="235.9" y="65.4" class="st0" width="7.1" height="7.1"/>
	<rect x="109" y="66.2" class="st0" width="7.1" height="7.1"/>
	<rect x="112.8" y="52.5" class="st0" width="7.1" height="7.1"/>
	<rect x="77" y="64.8" class="st0" width="7.1" height="7.1"/>
	<rect x="153.1" y="57.9" class="st0" width="7.1" height="7.1"/>
	<rect x="38.1" y="53.8" class="st0" width="7.1" height="7.1"/>
	<rect x="56.8" y="59.5" class="st0" width="7.1" height="7.1"/>
	<rect x="127.3" y="66.4" class="st0" width="7.1" height="7.1"/>
	<rect x="68.5" y="53.8" class="st0" width="7.1" height="7.1"/>
	<rect x="173.5" y="67.2" class="st0" width="5.8" height="5.8"/>
</g>
</svg>
